<?xml version="1.0" encoding="UTF-8"?>
<svg width="400px" height="400px" viewBox="0 0 400 400" version="1.1" xmlns="http://www.w3.org/2000/svg" xmlns:xlink="http://www.w3.org/1999/xlink">
    <!-- Generator: Sketch 49 (51002) - http://www.bohemiancoding.com/sketch -->
    <title>Blueprinter_option3</title>
    <desc>Created with Sketch.</desc>
    <defs></defs>
    <g id="Blueprinter_option3" stroke="none" stroke-width="1" fill="none" fill-rule="evenodd">
        <g id="Page-1">
            <path d="M60,180 L320,180 C331.046,180 340,171.046 340,160 C340,148.954 331.046,140 320,140 L60,140 L60,180 Z" id="Fill-1" fill="#3397FF"></path>
            <polygon id="Clip-4" points="0 400 400 400 400 0 0 0"></polygon>
            <polygon id="Fill-3" fill="#3397FF" points="320 125 360 125 360 115 320 115"></polygon>
            <polygon id="Fill-5" fill="#3397FF" points="270 125 310 125 310 115 270 115"></polygon>
            <path d="M380,187.5391 C378.88,188.3811 376.636,189.7891 372.508,191.4561 C364.591,194.6551 359.578,202.5271 360.027,211.0541 C360.478,219.5801 366.291,226.8811 374.5,229.2281 C377.421,230.0641 379.107,230.8791 380,231.4061 L380,320.0001 L342.857,320.0001 L314.285,280.0001 L320,280.0001 C331.046,280.0001 340,271.0461 340,260.0001 C340,248.9541 331.046,240.0001 320,240.0001 L60,240.0001 L60,280.0001 L85.714,280.0001 L57.143,320.0001 L20,320.0001 L20,100.0001 L100,100.0001 L300,100.0001 L380,100.0001 L380,187.5391 Z M361.137,380.0001 L38.863,380.0001 L67.436,340.0001 L74.578,330.0001 L110.292,280.0001 L289.708,280.0001 L318.279,320.0001 L325.422,330.0001 L361.137,380.0001 Z M120,80.0001 L280,80.0001 L280,20.0001 L120,20.0001 L120,80.0001 Z M400,190.0001 L400,96.0001 C400,87.1631 392.837,80.0001 384,80.0001 L300,80.0001 L300,0.0001 L100,0.0001 L100,80.0001 L16,80.0001 C7.163,80.0001 0,87.1631 0,96.0001 L0,324.0001 C0,332.8371 7.163,340.0001 16,340.0001 L42.857,340.0001 L0,400.0001 L400,400.0001 L357.143,340.0001 L384,340.0001 C392.837,340.0001 400,332.8371 400,324.0001 L400,230.0001 C400,220.4801 393.333,213.8131 380,210.0001 C393.333,204.6131 400,197.9461 400,190.0001 Z" id="Fill-6" fill="#3397FF"></path>
        </g>
        <path d="M231.57496,355.839844 C238.797527,354.746088 241.550888,351.68134 239.924155,346.645508 L237.100273,339.228516 C235.148272,334.101537 238.144046,330.501312 245.782829,328.427734 C236.361859,326.354156 230.827884,322.753932 228.875882,317.626953 L226.052001,310.209961 C223.966672,305.174128 220.712522,302.10938 216.378481,301.015625 L217.380148,295 C222.915956,296.139329 227.712382,298.002103 231.792355,300.588379 C236.117639,303.174655 239.669734,306.564107 242.268076,310.756836 L246.469398,317.626953 C249.298163,322.252627 254.262239,324.56543 261.361776,324.56543 L267.100058,332.324219 C259.338181,332.324219 256.857728,334.614235 259.658623,339.194336 L264.11077,346.474609 C268.598648,354.495483 260.507451,359.633778 239.251882,361.889648 L231.57496,355.839844 Z M167.367921,355.839844 L159.650562,361.889648 C138.410071,359.633778 130.353218,354.495483 134.894707,346.474609 L139.395515,339.194336 C142.227024,334.614235 139.761877,332.324219 132,332.324219 L137.790141,324.56543 C144.889677,324.56543 149.869212,322.252627 152.728895,317.626953 L156.976136,310.756836 C159.602502,306.564107 163.177252,303.174655 167.519823,300.588379 C171.617082,298.002103 176.425959,296.139329 181.969382,295 L182.930841,301.015625 C178.58949,302.10938 175.314855,305.174128 173.195867,310.209961 L170.322411,317.626953 C168.336141,322.753932 162.778102,326.354156 153.343272,328.427734 C160.968196,330.501312 163.939906,334.101537 161.953636,339.228516 L159.08018,346.645508 C157.419788,351.68134 160.152664,354.746088 167.367921,355.839844 Z" id="Combined-Shape" fill="#3397FF"></path>
    </g>
</svg>